<svg version="1.1" width="536.071" height="536.07" viewBox="0 0 536.071 536.07" xmlns="http://www.w3.org/2000/svg" xmlns:xlink="http://www.w3.org/1999/xlink" id="Capa_1" overflow="hidden"><style>
.MsftOfcThm_Background1_Fill {
 fill:#FFFFFF; 
}
</style>
<g><path d=" M 147.128 91.076 C 147.128 53.126 177.894 22.36 215.849 22.36 C 253.799 22.36 284.568 53.126 284.568 91.076 C 284.568 129.026 253.799 159.791 215.849 159.791 C 177.894 159.792 147.128 129.026 147.128 91.076 Z M 248.873 206.607 C 249.562 191.644 254.713 177.795 263 166.346 C 257.184 165.128 251.173 164.481 245.005 164.481 L 186.701 164.481 C 180.551 164.481 174.548 165.123 168.762 166.326 C 177.581 178.558 182.856 193.497 182.942 209.669 C 193.662 203.773 205.962 200.416 219.027 200.416 C 229.625 200.416 239.714 202.624 248.873 206.607 Z M 260.505 212.775 C 280.465 225.292 294.462 246.463 297.022 271.049 C 305.155 274.85 314.193 277.043 323.768 277.043 C 358.736 277.043 387.079 248.697 387.079 213.73 C 387.079 178.759 358.736 150.419 323.768 150.419 C 289.12 150.42 261.031 178.257 260.505 212.775 Z M 219.026 342.411 C 253.988 342.411 282.333 314.057 282.333 279.1 C 282.333 244.138 253.988 215.789 219.026 215.789 C 184.061 215.789 155.704 244.137 155.704 279.1 C 155.705 314.057 184.061 342.411 219.026 342.411 Z M 245.882 346.72 L 192.165 346.72 C 147.468 346.72 111.096 383.089 111.096 427.792 L 111.096 493.495 L 111.267 494.524 L 115.789 495.93 C 158.447 509.253 195.507 513.709 226.013 513.709 C 285.584 513.709 320.127 496.722 322.255 495.635 L 326.486 493.494 L 326.935 493.494 L 326.935 427.791 C 326.936 383.089 290.585 346.72 245.882 346.72 Z M 350.638 281.364 L 297.324 281.364 C 296.745 302.696 287.641 321.906 273.243 335.714 C 312.975 347.529 342.045 384.371 342.045 427.892 L 342.045 448.137 C 394.674 446.199 425.008 431.291 427.006 430.286 L 431.238 428.134 L 431.687 428.134 L 431.687 362.419 C 431.693 317.728 395.324 281.364 350.638 281.364 Z M 364.889 149.069 C 384.85 161.588 398.846 182.76 401.4 207.346 C 409.534 211.147 418.571 213.336 428.146 213.336 C 463.121 213.336 491.462 184.994 491.462 150.032 C 491.462 115.06 463.12 86.721 428.146 86.721 C 393.503 86.717 365.416 114.56 364.889 149.069 Z M 455.01 217.658 L 401.707 217.658 C 401.128 238.99 392.025 258.2 377.627 272.007 C 417.358 283.818 446.428 320.665 446.428 364.186 L 446.428 384.431 C 499.052 382.497 529.392 367.591 531.39 366.579 L 535.616 364.434 L 536.071 364.434 L 536.071 298.711 C 536.077 254.024 499.708 217.658 455.01 217.658 Z M 107.937 277.044 C 120.323 277.044 131.84 273.426 141.607 267.267 C 144.713 247.026 155.565 229.335 171.061 217.292 C 171.126 216.104 171.235 214.931 171.235 213.731 C 171.235 178.76 142.884 150.42 107.937 150.42 C 72.96 150.42 44.621 178.759 44.621 213.731 C 44.621 248.704 72.959 277.044 107.937 277.044 Z M 164.795 335.714 C 150.464 321.972 141.391 302.867 140.723 281.659 C 138.752 281.512 136.795 281.364 134.78 281.364 L 81.069 281.364 C 36.366 281.364 0 317.728 0 362.425 L 0 428.134 L 0.166 429.157 L 4.694 430.569 C 38.908 441.268 69.455 446.185 95.986 447.722 L 95.986 427.885 C 95.991 384.371 125.054 347.523 164.795 335.714 Z" stroke="none" stroke-width="1" stroke-linecap="butt" stroke-dasharray="" stroke-dashoffset="1" fill="#FFFFFF" fill-opacity="1"/></g><g></g><g></g><g></g><g></g><g></g><g></g><g></g><g></g><g></g><g></g><g></g><g></g><g></g><g></g><g></g></svg>