<?xml version="1.0" standalone="no"?>
<!DOCTYPE svg PUBLIC "-//W3C//DTD SVG 20010904//EN"
 "http://www.w3.org/TR/2001/REC-SVG-20010904/DTD/svg10.dtd">
<svg version="1.0" xmlns="http://www.w3.org/2000/svg"
 width="2000.000000pt" height="2000.000000pt" viewBox="0 0 2000.000000 2000.000000"
 preserveAspectRatio="xMidYMid meet">
<metadata>
Created by potrace 1.11, written by Peter Selinger 2001-2013
</metadata>
<g transform="translate(0.000000,2000.000000) scale(0.100000,-0.100000)"
fill="#000000" stroke="none">
<path d="M16580 18839 c-36 -4 -85 -10 -110 -13 -25 -3 -63 -8 -85 -10 -39 -5
-72 -10 -125 -21 -14 -3 -41 -8 -60 -11 -317 -56 -785 -224 -1140 -407 -207
-108 -297 -153 -345 -173 -349 -151 -737 -232 -1080 -228 -94 1 -265 11 -300
18 -11 2 -58 9 -105 16 -47 7 -105 18 -130 26 -100 30 -469 124 -544 138 -11
2 -43 10 -71 16 -70 16 -63 15 -235 49 -204 41 -477 86 -635 106 -11 2 -56 8
-100 13 -44 6 -102 14 -130 17 -27 3 -66 7 -85 10 -19 2 -66 7 -103 10 -37 4
-76 8 -85 10 -9 1 -71 6 -137 10 -66 4 -138 9 -160 10 -389 25 -1145 25 -1410
0 -22 -2 -76 -7 -120 -10 -79 -6 -106 -8 -235 -20 -68 -6 -387 -43 -430 -50
-14 -2 -47 -7 -75 -10 -50 -6 -82 -11 -120 -19 -11 -2 -42 -7 -70 -11 -27 -5
-52 -9 -55 -10 -3 0 -27 -4 -55 -9 -70 -10 -297 -54 -375 -71 -36 -8 -76 -17
-90 -19 -20 -4 -113 -25 -261 -60 -9 -3 -36 -9 -60 -16 -24 -6 -60 -16 -79
-21 -196 -52 -274 -74 -390 -109 -221 -68 -238 -72 -377 -87 -134 -15 -502 -8
-599 11 -12 3 -39 7 -60 10 -332 52 -588 147 -1044 387 -36 19 -94 48 -130 63
-36 16 -90 40 -120 54 -30 13 -64 28 -75 33 -11 5 -78 31 -150 58 -213 80
-446 145 -665 186 -14 3 -36 7 -50 10 -56 12 -247 35 -348 42 -441 29 -856
-28 -1267 -174 -95 -34 -241 -94 -276 -113 -9 -5 -63 -33 -120 -62 -57 -29
-106 -55 -109 -58 -7 -7 -42 -29 -60 -37 -13 -6 -152 -97 -230 -150 -190 -130
-532 -455 -683 -648 -53 -68 -115 -158 -164 -240 -60 -99 -183 -345 -183 -365
0 -6 -4 -18 -9 -28 -59 -115 -157 -460 -175 -614 -3 -26 -8 -62 -11 -80 -28
-181 -37 -478 -22 -723 4 -66 9 -131 11 -145 2 -14 7 -47 10 -75 3 -27 8 -61
10 -75 2 -14 8 -47 12 -75 4 -27 8 -54 9 -60 2 -5 10 -48 20 -95 30 -151 120
-464 160 -555 7 -16 28 -68 48 -115 61 -149 89 -210 200 -430 187 -368 246
-475 375 -670 116 -175 162 -266 196 -385 60 -207 50 -431 -25 -590 -18 -39
-151 -452 -199 -620 -41 -141 -124 -459 -135 -515 -2 -8 -19 -89 -38 -180 -19
-91 -38 -183 -43 -205 -4 -22 -8 -44 -9 -50 -3 -12 -35 -199 -41 -240 -2 -16
-6 -41 -9 -55 -2 -14 -7 -45 -10 -70 -4 -25 -8 -56 -10 -70 -2 -14 -7 -45 -10
-70 -3 -25 -8 -61 -10 -80 -3 -19 -7 -55 -9 -80 -3 -25 -7 -72 -11 -105 -11
-106 -14 -138 -20 -240 -4 -55 -8 -120 -10 -145 -20 -250 -28 -1148 -12 -1430
5 -80 10 -172 11 -205 4 -60 12 -169 21 -255 2 -25 7 -74 11 -110 3 -36 8 -78
10 -95 2 -16 6 -55 9 -85 4 -30 20 -147 37 -260 36 -249 33 -232 47 -305 16
-88 20 -105 25 -123 3 -9 7 -33 10 -52 7 -49 34 -174 52 -245 9 -33 17 -67 19
-75 7 -36 29 -120 46 -185 232 -842 563 -1549 1023 -2185 99 -137 226 -297
320 -405 34 -38 72 -83 86 -99 32 -38 381 -388 440 -441 45 -41 150 -131 204
-176 16 -13 34 -29 40 -34 6 -6 54 -44 106 -85 52 -41 100 -79 107 -85 138
-115 531 -384 793 -542 91 -55 172 -103 180 -107 8 -4 24 -12 35 -19 324 -196
917 -473 1380 -643 83 -30 166 -61 185 -69 140 -53 546 -179 755 -235 84 -22
269 -69 295 -75 8 -2 74 -17 145 -34 124 -29 348 -78 390 -86 11 -2 54 -10 95
-19 41 -8 89 -17 105 -20 17 -3 55 -10 85 -16 30 -6 64 -12 76 -14 34 -7 376
-65 419 -71 22 -3 51 -7 65 -10 94 -14 172 -25 215 -30 28 -3 64 -8 80 -10 98
-15 296 -38 418 -50 533 -49 744 -60 1212 -60 316 0 627 8 735 19 30 3 84 7
277 21 78 6 190 16 214 20 13 2 61 6 106 10 46 3 91 8 100 9 10 2 47 7 83 11
36 4 76 9 90 10 14 2 52 6 85 10 33 4 67 8 75 10 8 2 44 6 80 10 36 4 74 9 85
11 10 2 36 6 57 9 122 16 210 30 268 40 14 3 43 7 65 10 22 3 51 8 65 11 14 2
36 6 50 9 14 2 104 18 200 35 96 18 186 33 200 35 14 2 99 20 190 39 91 19
179 37 197 40 17 3 80 18 139 32 59 14 114 27 123 29 9 2 45 11 81 20 36 9 72
18 80 20 8 2 58 15 110 30 52 15 100 28 105 29 66 15 419 126 580 182 121 43
233 83 260 95 11 4 85 34 165 65 330 128 787 343 1080 506 201 113 213 119
330 190 178 109 582 379 665 445 6 5 39 31 75 58 69 52 312 245 320 254 3 4
52 46 110 96 99 84 423 402 500 490 133 151 176 202 251 295 326 406 625 903
847 1410 9 19 16 37 17 40 1 3 9 23 19 45 57 127 184 479 247 685 72 236 167
625 204 835 2 17 7 41 10 55 15 76 61 362 69 435 4 28 9 66 11 85 6 35 8 51
20 165 3 33 8 76 10 95 6 48 13 128 20 235 4 50 8 104 10 120 26 222 27 1419
0 1645 -2 19 -7 80 -11 135 -10 159 -14 195 -29 330 -3 22 -7 66 -10 98 -4 32
-8 68 -11 80 -4 22 -11 71 -18 137 -2 19 -9 62 -15 95 -5 33 -12 76 -15 95 -3
19 -13 73 -21 120 -9 47 -23 123 -31 170 -9 46 -17 87 -20 91 -2 4 -6 24 -10
45 -3 22 -13 68 -21 104 -8 36 -16 72 -18 80 -12 62 -54 224 -96 380 -50 183
-58 210 -126 425 -52 164 -145 429 -154 439 -5 6 -9 16 -9 23 0 14 -108 290
-165 423 -34 79 -36 90 -34 179 3 137 49 240 181 406 27 33 52 65 56 70 4 6
26 35 49 66 71 95 169 262 247 416 265 529 429 1098 474 1638 14 174 6 582
-13 697 -2 13 -6 46 -9 73 -7 61 -30 182 -56 290 -102 427 -316 842 -590 1145
-444 490 -967 826 -1559 1000 -41 12 -81 23 -90 25 -9 2 -34 8 -56 14 -22 6
-58 13 -80 16 -22 4 -48 8 -57 11 -27 8 -59 13 -143 24 -44 6 -96 13 -115 16
-56 9 -519 11 -590 3z"/>
</g>
</svg>
